<svg width="480" height="93" viewBox="0 0 480 93" fill="none" xmlns="http://www.w3.org/2000/svg">
<path d="M36.064 92.152C29.5787 92.152 23.648 91.128 18.272 89.08C12.896 86.9467 8.62933 84.0453 5.472 80.376C2.4 76.7067 0.864 72.6533 0.864 68.216C0.864 64.4613 1.93067 61.7307 4.064 60.024C6.19733 58.3173 9.568 57.464 14.176 57.464L16.864 57.592C16.608 58.9573 16.48 60.664 16.48 62.712C16.48 67.2347 18.2293 70.776 21.728 73.336C25.2267 75.896 30.0053 77.176 36.064 77.176C42.3787 77.176 47.2 75.5547 50.528 72.312C53.9413 68.984 55.648 64.2907 55.648 58.232C55.648 52.5147 53.8987 48.0773 50.4 44.92C46.9013 41.7627 42.0373 40.184 35.808 40.184C28.9813 40.184 23.1787 41.976 18.4 45.56C16.2667 47.096 14.048 47.864 11.744 47.864C9.44 47.864 7.47733 47.1813 5.856 45.816C4.23467 44.3653 3.424 42.5307 3.424 40.312C3.424 39.7147 3.46667 39.2453 3.552 38.904L8.672 7.544C9.01333 5.49599 9.86667 3.95999 11.232 2.936C12.6827 1.91199 14.56 1.39999 16.864 1.39999H68.32C68.32 11.128 64.352 15.992 56.416 15.992H21.856L19.552 29.688C17.4187 31.1387 15.6693 32.5893 14.304 34.04L14.944 34.808C18.1867 32.0773 22.0693 29.9013 26.592 28.28C31.2 26.6587 35.7227 25.848 40.16 25.848C46.6453 25.848 52.2773 27.1707 57.056 29.816C61.92 32.4613 65.632 36.216 68.192 41.08C70.8373 45.944 72.16 51.6613 72.16 58.232C72.16 65.144 70.7093 71.16 67.808 76.28C64.9067 81.4 60.7253 85.3253 55.264 88.056C49.888 90.7867 43.488 92.152 36.064 92.152ZM84.552 9.20799C84.552 6.98933 85.3627 5.15466 86.984 3.70399C88.6053 2.16799 90.6533 1.39999 93.128 1.39999H127.304C136.52 1.39999 143.645 3.832 148.68 8.696C153.8 13.56 156.36 20.3867 156.36 29.176C156.36 34.2107 155.336 38.4773 153.288 41.976C151.24 45.3893 148.125 48.12 143.944 50.168V50.552C151.453 53.88 155.208 60.1947 155.208 69.496V79.48C155.208 83.576 153.757 86.7333 150.856 88.952C147.955 91.0853 143.688 92.152 138.056 92.152V70.264C138.056 65.7413 137.16 62.4133 135.368 60.28C133.576 58.1467 130.845 57.08 127.176 57.08H101.448V79.48C101.448 83.6613 99.9973 86.8187 97.096 88.952C94.28 91.0853 90.0987 92.152 84.552 92.152V9.20799ZM126.408 42.488C130.504 42.488 133.661 41.336 135.88 39.032C138.099 36.6427 139.208 33.3147 139.208 29.048C139.208 20.344 134.941 15.992 126.408 15.992H101.448V42.488H126.408ZM194.831 92.152C189.54 92.152 184.719 91.128 180.367 89.08C176.015 86.9467 172.559 84.088 169.999 80.504C167.439 76.8347 166.159 72.7387 166.159 68.216V51.192C166.159 46.4133 167.482 42.104 170.127 38.264C172.772 34.424 176.271 31.3947 180.623 29.176C185.06 26.9573 189.839 25.848 194.959 25.848C199.994 25.848 204.602 26.9147 208.783 29.048C213.05 31.096 216.42 33.9973 218.895 37.752C221.37 41.4213 222.607 45.6453 222.607 50.424V57.592C222.607 59.4693 221.882 61.048 220.431 62.328C219.066 63.608 217.316 64.248 215.183 64.248H181.647V67.064C181.647 70.7333 182.756 73.72 184.975 76.024C187.194 78.328 190.522 79.48 194.959 79.48C199.226 79.48 202.383 78.5413 204.431 76.664C206.564 74.7867 207.631 72.3547 207.631 69.368C209.167 69.1973 210.234 69.112 210.831 69.112C213.988 69.112 216.463 69.8373 218.255 71.288C220.047 72.6533 220.943 74.616 220.943 77.176C220.943 79.6507 219.791 82.04 217.487 84.344C215.183 86.648 212.026 88.5253 208.015 89.976C204.004 91.4267 199.61 92.152 194.831 92.152ZM208.143 52.856V50.424C208.143 46.84 206.906 43.9387 204.431 41.72C201.956 39.5013 198.756 38.392 194.831 38.392C190.906 38.392 187.706 39.5013 185.231 41.72C182.842 43.8533 181.647 46.7547 181.647 50.424V52.856H208.143ZM257.977 92.152C255.929 92.152 254.137 91.6827 252.601 90.744C251.15 89.8053 250.126 88.5253 249.529 86.904L226.489 27.128C227.086 26.7867 228.11 26.488 229.561 26.232C231.097 25.976 232.334 25.848 233.273 25.848C235.748 25.848 237.966 26.36 239.929 27.384C241.977 28.408 243.342 29.9013 244.025 31.864L257.209 71.8L255.033 77.816L256.057 78.072L271.929 31.864C272.612 29.9013 273.934 28.408 275.897 27.384C277.945 26.36 280.206 25.848 282.681 25.848C283.62 25.848 284.814 25.976 286.265 26.232C287.801 26.488 288.868 26.7867 289.465 27.128L266.425 86.904C265.828 88.5253 264.761 89.8053 263.225 90.744C261.774 91.6827 260.025 92.152 257.977 92.152ZM309.301 19.832C306.229 19.832 303.669 18.936 301.621 17.144C299.658 15.2667 298.677 12.8773 298.677 9.976C298.677 7.16 299.658 4.856 301.621 3.064C303.669 1.18666 306.229 0.247993 309.301 0.247993C312.373 0.247993 314.89 1.18666 316.853 3.064C318.901 4.856 319.925 7.16 319.925 9.976C319.925 12.8773 318.901 15.2667 316.853 17.144C314.89 18.936 312.373 19.832 309.301 19.832ZM301.237 35.576C301.237 32.0773 302.56 29.6027 305.205 28.152C307.85 26.616 311.861 25.848 317.237 25.848V82.424C317.237 85.8373 315.914 88.312 313.269 89.848C310.624 91.384 306.613 92.152 301.237 92.152V35.576ZM362.956 92.152C357.665 92.152 352.844 91.128 348.492 89.08C344.14 86.9467 340.684 84.088 338.124 80.504C335.564 76.8347 334.284 72.7387 334.284 68.216V51.192C334.284 46.4133 335.607 42.104 338.252 38.264C340.897 34.424 344.396 31.3947 348.748 29.176C353.185 26.9573 357.964 25.848 363.084 25.848C368.119 25.848 372.727 26.9147 376.908 29.048C381.175 31.096 384.545 33.9973 387.02 37.752C389.495 41.4213 390.732 45.6453 390.732 50.424V57.592C390.732 59.4693 390.007 61.048 388.556 62.328C387.191 63.608 385.441 64.248 383.308 64.248H349.772V67.064C349.772 70.7333 350.881 73.72 353.1 76.024C355.319 78.328 358.647 79.48 363.084 79.48C367.351 79.48 370.508 78.5413 372.556 76.664C374.689 74.7867 375.756 72.3547 375.756 69.368C377.292 69.1973 378.359 69.112 378.956 69.112C382.113 69.112 384.588 69.8373 386.38 71.288C388.172 72.6533 389.068 74.616 389.068 77.176C389.068 79.6507 387.916 82.04 385.612 84.344C383.308 86.648 380.151 88.5253 376.14 89.976C372.129 91.4267 367.735 92.152 362.956 92.152ZM376.268 52.856V50.424C376.268 46.84 375.031 43.9387 372.556 41.72C370.081 39.5013 366.881 38.392 362.956 38.392C359.031 38.392 355.831 39.5013 353.356 41.72C350.967 43.8533 349.772 46.7547 349.772 50.424V52.856H376.268ZM424.438 92.152C420.513 92.152 417.227 91.384 414.582 89.848C411.937 88.2267 410.187 85.9227 409.334 82.936L394.614 27.256C395.297 26.8293 396.321 26.488 397.686 26.232C399.051 25.976 400.374 25.848 401.654 25.848C404.214 25.848 406.347 26.4453 408.054 27.64C409.846 28.7493 410.955 30.2427 411.382 32.12L418.934 66.552L417.27 73.592L418.038 73.848L429.558 31.096C430.07 29.56 430.966 28.3227 432.246 27.384C433.526 26.36 435.19 25.848 437.238 25.848C439.371 25.848 441.121 26.36 442.486 27.384C443.851 28.3227 444.747 29.56 445.174 31.096L454.39 67.448L452.47 74.872L453.238 75.128L463.094 32.12C463.521 30.2427 464.63 28.7493 466.422 27.64C468.214 26.4453 470.39 25.848 472.95 25.848C474.315 25.848 475.638 25.976 476.918 26.232C478.283 26.488 479.307 26.8293 479.99 27.256L465.27 82.936C464.502 85.8373 462.625 88.0987 459.638 89.72C456.651 91.3413 453.153 92.152 449.142 92.152L436.086 40.696L435.446 40.952L436.854 46.456L424.438 92.152Z" fill="white"/>
</svg>
